<mxfile host="app.diagrams.net" modified="2022-05-07T01:27:27.021Z" agent="5.0 (Windows NT 10.0; Win64; x64) AppleWebKit/537.36 (KHTML, like Gecko) Chrome/100.0.4896.127 Safari/537.36" etag="asXP28xwPtKetFBTCFr8" version="18.0.1" type="github">
  <diagram id="FW3BfJ-pZU4DDBVMpS15" name="全排列">
    <mxGraphModel dx="680" dy="379" grid="1" gridSize="10" guides="1" tooltips="1" connect="1" arrows="1" fold="1" page="1" pageScale="1" pageWidth="827" pageHeight="1169" math="0" shadow="0">
      <root>
        <mxCell id="0" />
        <mxCell id="1" parent="0" />
        <mxCell id="sj79IflxECgDqwDJokLC-8" value="" style="edgeStyle=orthogonalEdgeStyle;rounded=0;orthogonalLoop=1;jettySize=auto;html=1;" edge="1" parent="1" source="sj79IflxECgDqwDJokLC-1" target="sj79IflxECgDqwDJokLC-2">
          <mxGeometry relative="1" as="geometry" />
        </mxCell>
        <mxCell id="sj79IflxECgDqwDJokLC-1" value="初始化与极端情况检测" style="rounded=1;whiteSpace=wrap;html=1;fillColor=#d5e8d4;strokeColor=#82b366;" vertex="1" parent="1">
          <mxGeometry x="70" y="30" width="130" height="40" as="geometry" />
        </mxCell>
        <mxCell id="sj79IflxECgDqwDJokLC-5" value="" style="edgeStyle=orthogonalEdgeStyle;rounded=0;orthogonalLoop=1;jettySize=auto;html=1;" edge="1" parent="1" source="sj79IflxECgDqwDJokLC-2" target="sj79IflxECgDqwDJokLC-4">
          <mxGeometry relative="1" as="geometry" />
        </mxCell>
        <mxCell id="sj79IflxECgDqwDJokLC-2" value="数组长度 len&lt;br&gt;res 存放 List&amp;lt;List&amp;lt;ITG&amp;gt;&amp;gt;&lt;br&gt;标记数组 used&lt;br&gt;&lt;span style=&quot;text-align: left;&quot;&gt;单词结果数组&lt;/span&gt;&amp;nbsp;path" style="rounded=1;whiteSpace=wrap;html=1;fillColor=#d5e8d4;strokeColor=#82b366;" vertex="1" parent="1">
          <mxGeometry x="65" y="110" width="140" height="60" as="geometry" />
        </mxCell>
        <mxCell id="sj79IflxECgDqwDJokLC-6" style="edgeStyle=orthogonalEdgeStyle;rounded=0;orthogonalLoop=1;jettySize=auto;html=1;exitX=1;exitY=0.5;exitDx=0;exitDy=0;entryX=1;entryY=0.5;entryDx=0;entryDy=0;" edge="1" parent="1" source="sj79IflxECgDqwDJokLC-4" target="sj79IflxECgDqwDJokLC-2">
          <mxGeometry relative="1" as="geometry">
            <Array as="points">
              <mxPoint x="260" y="250" />
              <mxPoint x="260" y="140" />
            </Array>
          </mxGeometry>
        </mxCell>
        <mxCell id="sj79IflxECgDqwDJokLC-12" value="" style="edgeStyle=orthogonalEdgeStyle;rounded=0;orthogonalLoop=1;jettySize=auto;html=1;entryX=0.5;entryY=0;entryDx=0;entryDy=0;" edge="1" parent="1" source="sj79IflxECgDqwDJokLC-4" target="sj79IflxECgDqwDJokLC-9">
          <mxGeometry relative="1" as="geometry" />
        </mxCell>
        <mxCell id="sj79IflxECgDqwDJokLC-4" value="数组为空？" style="rhombus;whiteSpace=wrap;html=1;fillColor=#d5e8d4;strokeColor=#82b366;rounded=1;" vertex="1" parent="1">
          <mxGeometry x="40" y="210" width="190" height="80" as="geometry" />
        </mxCell>
        <mxCell id="sj79IflxECgDqwDJokLC-7" value="Yes" style="text;html=1;strokeColor=none;fillColor=none;align=center;verticalAlign=middle;whiteSpace=wrap;rounded=0;" vertex="1" parent="1">
          <mxGeometry x="220" y="190" width="30" height="20" as="geometry" />
        </mxCell>
        <mxCell id="sj79IflxECgDqwDJokLC-13" value="" style="edgeStyle=orthogonalEdgeStyle;rounded=0;orthogonalLoop=1;jettySize=auto;html=1;" edge="1" parent="1" source="sj79IflxECgDqwDJokLC-9" target="sj79IflxECgDqwDJokLC-10">
          <mxGeometry relative="1" as="geometry" />
        </mxCell>
        <mxCell id="sj79IflxECgDqwDJokLC-9" value="深度搜索" style="rounded=1;whiteSpace=wrap;html=1;fillColor=#d5e8d4;strokeColor=#82b366;" vertex="1" parent="1">
          <mxGeometry x="70" y="320" width="130" height="40" as="geometry" />
        </mxCell>
        <mxCell id="sj79IflxECgDqwDJokLC-10" value="返回res" style="rounded=1;whiteSpace=wrap;html=1;fillColor=#d5e8d4;strokeColor=#82b366;" vertex="1" parent="1">
          <mxGeometry x="70" y="400" width="130" height="40" as="geometry" />
        </mxCell>
        <mxCell id="sj79IflxECgDqwDJokLC-11" value="更新res" style="text;html=1;strokeColor=none;fillColor=none;align=center;verticalAlign=middle;whiteSpace=wrap;rounded=0;" vertex="1" parent="1">
          <mxGeometry x="220" y="330" width="50" height="20" as="geometry" />
        </mxCell>
        <mxCell id="sj79IflxECgDqwDJokLC-31" value="" style="edgeStyle=orthogonalEdgeStyle;rounded=0;orthogonalLoop=1;jettySize=auto;html=1;" edge="1" parent="1" source="sj79IflxECgDqwDJokLC-14" target="sj79IflxECgDqwDJokLC-18">
          <mxGeometry relative="1" as="geometry" />
        </mxCell>
        <mxCell id="sj79IflxECgDqwDJokLC-14" value="深度搜索" style="rounded=1;whiteSpace=wrap;html=1;fillColor=#d5e8d4;strokeColor=#82b366;" vertex="1" parent="1">
          <mxGeometry x="370" y="30" width="130" height="40" as="geometry" />
        </mxCell>
        <mxCell id="sj79IflxECgDqwDJokLC-15" value="&lt;b&gt;函数名&lt;/b&gt;&lt;br&gt;&lt;span style=&quot;&quot;&gt;	&lt;/span&gt;&lt;span style=&quot;&quot;&gt;	&lt;/span&gt;&lt;span style=&quot;white-space: pre;&quot;&gt;	&lt;/span&gt;dfs&lt;br&gt;&lt;b&gt;参数&lt;/b&gt;&lt;br&gt;&lt;span style=&quot;&quot;&gt;	&lt;/span&gt;&lt;span style=&quot;&quot;&gt;	&lt;/span&gt;&lt;span style=&quot;white-space: pre;&quot;&gt;	&lt;/span&gt;原始数组nums, 数组长度len,递归深度depth&lt;br&gt;&lt;span style=&quot;&quot;&gt;	&lt;/span&gt;&lt;span style=&quot;&quot;&gt;	&lt;/span&gt;&lt;span style=&quot;white-space: pre;&quot;&gt;	&lt;/span&gt;单次结果数组path,标记数组 used, 结果数组res&amp;nbsp;&lt;br&gt;&lt;b&gt;返回类型&lt;br&gt;&lt;/b&gt;&lt;span style=&quot;&quot;&gt;	&lt;/span&gt;&lt;span style=&quot;&quot;&gt;	&lt;/span&gt;&lt;span style=&quot;white-space: pre;&quot;&gt;	&lt;/span&gt;void" style="text;html=1;strokeColor=none;fillColor=none;align=left;verticalAlign=top;whiteSpace=wrap;rounded=0;" vertex="1" parent="1">
          <mxGeometry x="529" y="7" width="289" height="110" as="geometry" />
        </mxCell>
        <mxCell id="sj79IflxECgDqwDJokLC-32" value="" style="edgeStyle=orthogonalEdgeStyle;rounded=0;orthogonalLoop=1;jettySize=auto;html=1;" edge="1" parent="1" source="sj79IflxECgDqwDJokLC-18" target="sj79IflxECgDqwDJokLC-19">
          <mxGeometry relative="1" as="geometry" />
        </mxCell>
        <mxCell id="sj79IflxECgDqwDJokLC-33" value="" style="edgeStyle=orthogonalEdgeStyle;rounded=0;orthogonalLoop=1;jettySize=auto;html=1;" edge="1" parent="1" source="sj79IflxECgDqwDJokLC-18" target="sj79IflxECgDqwDJokLC-21">
          <mxGeometry relative="1" as="geometry" />
        </mxCell>
        <mxCell id="sj79IflxECgDqwDJokLC-18" value="&lt;span style=&quot;text-align: left;&quot;&gt;递归深度depth达到数组长度&lt;/span&gt;" style="rhombus;whiteSpace=wrap;html=1;fillColor=#d5e8d4;strokeColor=#82b366;rounded=1;" vertex="1" parent="1">
          <mxGeometry x="340" y="114" width="190" height="80" as="geometry" />
        </mxCell>
        <mxCell id="sj79IflxECgDqwDJokLC-19" value="将本次搜索到的排列加入res&lt;br&gt;返回" style="rounded=1;whiteSpace=wrap;html=1;fillColor=#d5e8d4;strokeColor=#82b366;" vertex="1" parent="1">
          <mxGeometry x="600" y="134" width="160" height="40" as="geometry" />
        </mxCell>
        <mxCell id="sj79IflxECgDqwDJokLC-20" value="遍历used" style="rounded=1;whiteSpace=wrap;html=1;fillColor=#d5e8d4;strokeColor=#82b366;" vertex="1" parent="1">
          <mxGeometry x="355" y="230" width="160" height="40" as="geometry" />
        </mxCell>
        <mxCell id="sj79IflxECgDqwDJokLC-34" value="" style="edgeStyle=orthogonalEdgeStyle;rounded=0;orthogonalLoop=1;jettySize=auto;html=1;" edge="1" parent="1" source="sj79IflxECgDqwDJokLC-21" target="sj79IflxECgDqwDJokLC-22">
          <mxGeometry relative="1" as="geometry" />
        </mxCell>
        <mxCell id="sj79IflxECgDqwDJokLC-35" value="" style="edgeStyle=orthogonalEdgeStyle;rounded=0;orthogonalLoop=1;jettySize=auto;html=1;" edge="1" parent="1" source="sj79IflxECgDqwDJokLC-21" target="sj79IflxECgDqwDJokLC-24">
          <mxGeometry relative="1" as="geometry" />
        </mxCell>
        <mxCell id="sj79IflxECgDqwDJokLC-21" value="&lt;div style=&quot;text-align: left;&quot;&gt;是否遍历结束？&lt;/div&gt;" style="rhombus;whiteSpace=wrap;html=1;fillColor=#d5e8d4;strokeColor=#82b366;rounded=1;" vertex="1" parent="1">
          <mxGeometry x="340" y="310" width="190" height="80" as="geometry" />
        </mxCell>
        <mxCell id="sj79IflxECgDqwDJokLC-22" value="返回" style="rounded=1;whiteSpace=wrap;html=1;fillColor=#d5e8d4;strokeColor=#82b366;" vertex="1" parent="1">
          <mxGeometry x="600" y="330" width="160" height="40" as="geometry" />
        </mxCell>
        <mxCell id="sj79IflxECgDqwDJokLC-36" value="" style="edgeStyle=orthogonalEdgeStyle;rounded=0;orthogonalLoop=1;jettySize=auto;html=1;" edge="1" parent="1" source="sj79IflxECgDqwDJokLC-24" target="sj79IflxECgDqwDJokLC-25">
          <mxGeometry relative="1" as="geometry" />
        </mxCell>
        <mxCell id="sj79IflxECgDqwDJokLC-37" value="" style="edgeStyle=orthogonalEdgeStyle;rounded=0;orthogonalLoop=1;jettySize=auto;html=1;" edge="1" parent="1" source="sj79IflxECgDqwDJokLC-24" target="sj79IflxECgDqwDJokLC-26">
          <mxGeometry relative="1" as="geometry" />
        </mxCell>
        <mxCell id="sj79IflxECgDqwDJokLC-24" value="&lt;div style=&quot;text-align: left;&quot;&gt;used[i] == true?&lt;/div&gt;" style="rhombus;whiteSpace=wrap;html=1;fillColor=#d5e8d4;strokeColor=#82b366;rounded=1;" vertex="1" parent="1">
          <mxGeometry x="340" y="430" width="190" height="80" as="geometry" />
        </mxCell>
        <mxCell id="sj79IflxECgDqwDJokLC-25" value="返回" style="rounded=1;whiteSpace=wrap;html=1;fillColor=#d5e8d4;strokeColor=#82b366;" vertex="1" parent="1">
          <mxGeometry x="600" y="450" width="160" height="40" as="geometry" />
        </mxCell>
        <mxCell id="sj79IflxECgDqwDJokLC-38" value="" style="edgeStyle=orthogonalEdgeStyle;rounded=0;orthogonalLoop=1;jettySize=auto;html=1;" edge="1" parent="1" source="sj79IflxECgDqwDJokLC-26" target="sj79IflxECgDqwDJokLC-27">
          <mxGeometry relative="1" as="geometry" />
        </mxCell>
        <mxCell id="sj79IflxECgDqwDJokLC-26" value="新建本次结果数组 newPath&lt;br&gt;并将当前元素放入 newPath" style="rounded=1;whiteSpace=wrap;html=1;fillColor=#d5e8d4;strokeColor=#82b366;" vertex="1" parent="1">
          <mxGeometry x="355" y="550" width="160" height="40" as="geometry" />
        </mxCell>
        <mxCell id="sj79IflxECgDqwDJokLC-39" value="" style="edgeStyle=orthogonalEdgeStyle;rounded=0;orthogonalLoop=1;jettySize=auto;html=1;" edge="1" parent="1" source="sj79IflxECgDqwDJokLC-27" target="sj79IflxECgDqwDJokLC-28">
          <mxGeometry relative="1" as="geometry" />
        </mxCell>
        <mxCell id="sj79IflxECgDqwDJokLC-27" value="新建本次标记数组 newUsed" style="rounded=1;whiteSpace=wrap;html=1;fillColor=#d5e8d4;strokeColor=#82b366;" vertex="1" parent="1">
          <mxGeometry x="355" y="630" width="160" height="40" as="geometry" />
        </mxCell>
        <mxCell id="sj79IflxECgDqwDJokLC-40" value="" style="edgeStyle=orthogonalEdgeStyle;rounded=0;orthogonalLoop=1;jettySize=auto;html=1;" edge="1" parent="1" source="sj79IflxECgDqwDJokLC-28" target="sj79IflxECgDqwDJokLC-29">
          <mxGeometry relative="1" as="geometry" />
        </mxCell>
        <mxCell id="sj79IflxECgDqwDJokLC-28" value="将used信息复制到newUsed" style="rounded=1;whiteSpace=wrap;html=1;fillColor=#d5e8d4;strokeColor=#82b366;" vertex="1" parent="1">
          <mxGeometry x="355" y="710" width="160" height="40" as="geometry" />
        </mxCell>
        <mxCell id="sj79IflxECgDqwDJokLC-41" value="" style="edgeStyle=orthogonalEdgeStyle;rounded=0;orthogonalLoop=1;jettySize=auto;html=1;" edge="1" parent="1" source="sj79IflxECgDqwDJokLC-29" target="sj79IflxECgDqwDJokLC-30">
          <mxGeometry relative="1" as="geometry" />
        </mxCell>
        <mxCell id="sj79IflxECgDqwDJokLC-29" value="将当前元素所在位置标记为true" style="rounded=1;whiteSpace=wrap;html=1;fillColor=#d5e8d4;strokeColor=#82b366;" vertex="1" parent="1">
          <mxGeometry x="347.5" y="790" width="175" height="40" as="geometry" />
        </mxCell>
        <mxCell id="sj79IflxECgDqwDJokLC-42" style="edgeStyle=orthogonalEdgeStyle;rounded=0;orthogonalLoop=1;jettySize=auto;html=1;exitX=0;exitY=0.5;exitDx=0;exitDy=0;entryX=0;entryY=0.5;entryDx=0;entryDy=0;" edge="1" parent="1" source="sj79IflxECgDqwDJokLC-30" target="sj79IflxECgDqwDJokLC-14">
          <mxGeometry relative="1" as="geometry">
            <Array as="points">
              <mxPoint x="310" y="890" />
              <mxPoint x="310" y="50" />
            </Array>
          </mxGeometry>
        </mxCell>
        <mxCell id="sj79IflxECgDqwDJokLC-30" value="当前基础上再次深度搜索" style="rounded=1;whiteSpace=wrap;html=1;fillColor=#d5e8d4;strokeColor=#82b366;" vertex="1" parent="1">
          <mxGeometry x="347.5" y="870" width="175" height="40" as="geometry" />
        </mxCell>
        <mxCell id="sj79IflxECgDqwDJokLC-43" value="Yes" style="text;html=1;strokeColor=none;fillColor=none;align=center;verticalAlign=middle;whiteSpace=wrap;rounded=0;" vertex="1" parent="1">
          <mxGeometry x="550" y="160" width="30" height="20" as="geometry" />
        </mxCell>
        <mxCell id="sj79IflxECgDqwDJokLC-44" value="Yes" style="text;html=1;strokeColor=none;fillColor=none;align=center;verticalAlign=middle;whiteSpace=wrap;rounded=0;" vertex="1" parent="1">
          <mxGeometry x="550" y="350" width="30" height="20" as="geometry" />
        </mxCell>
        <mxCell id="sj79IflxECgDqwDJokLC-45" value="Yes" style="text;html=1;strokeColor=none;fillColor=none;align=center;verticalAlign=middle;whiteSpace=wrap;rounded=0;" vertex="1" parent="1">
          <mxGeometry x="550" y="480" width="30" height="20" as="geometry" />
        </mxCell>
      </root>
    </mxGraphModel>
  </diagram>
</mxfile>
